<svg xmlns="http://www.w3.org/2000/svg" viewBox="0 0 48 36" role="img" aria-label="Chinese flag">
  <rect width="48" height="36" fill="#de2910"/>
  <g fill="#ffde00">
    <polygon points="0,-1 0.2245,-0.309 0.951,-0.309 0.3633,0.118 0.5878,0.809 0,0.382 -0.5878,0.809 -0.3633,0.118 -0.951,-0.309 -0.2245,-0.309" transform="translate(8,7.2) scale(4.6)"/>
    <polygon points="0,-1 0.2245,-0.309 0.951,-0.309 0.3633,0.118 0.5878,0.809 0,0.382 -0.5878,0.809 -0.3633,0.118 -0.951,-0.309 -0.2245,-0.309" transform="translate(16,3.2) scale(1.5)"/>
    <polygon points="0,-1 0.2245,-0.309 0.951,-0.309 0.3633,0.118 0.5878,0.809 0,0.382 -0.5878,0.809 -0.3633,0.118 -0.951,-0.309 -0.2245,-0.309" transform="translate(19.5,6.6) scale(1.5)"/>
    <polygon points="0,-1 0.2245,-0.309 0.951,-0.309 0.3633,0.118 0.5878,0.809 0,0.382 -0.5878,0.809 -0.3633,0.118 -0.951,-0.309 -0.2245,-0.309" transform="translate(19.5,11) scale(1.5)"/>
    <polygon points="0,-1 0.2245,-0.309 0.951,-0.309 0.3633,0.118 0.5878,0.809 0,0.382 -0.5878,0.809 -0.3633,0.118 -0.951,-0.309 -0.2245,-0.309" transform="translate(16,14.4) scale(1.5)"/>
  </g>
</svg>
