<svg xmlns="http://www.w3.org/2000/svg" viewBox="0 0 220 120" role="img" aria-label="PSL Group logo">
  <!-- Badge background -->
  <ellipse cx="110" cy="60" rx="104" ry="50" fill="#ffffff" stroke="#1b75bb" stroke-width="2.5"/>

  <!-- Orbit swoosh: blue top ribbon + green bottom ribbon framing the wordmark -->
  <g fill="none" stroke-width="8" stroke-linecap="round">
    <path d="M30 52 C 62 18, 158 18, 190 52" stroke="#1b75bb"/>
    <path d="M190 68 C 158 102, 62 102, 30 68" stroke="#3aaa35"/>
  </g>

  <!-- Wordmark -->
  <text x="110" y="74" text-anchor="middle" font-family="Arial, Helvetica, sans-serif"
        font-weight="700" font-size="44" letter-spacing="2" fill="#1b75bb">PSL</text>

  <!-- Red sparkle accents -->
  <g fill="#e3242b">
    <path d="M52 30 C52 38.5 50.2 40.3 44 40.3 C50.2 40.3 52 42.1 52 50.6 C52 42.1 53.8 40.3 60 40.3 C53.8 40.3 52 38.5 52 30 Z"/>
    <path d="M176 62 C176 68.2 174.6 69.6 170 69.6 C174.6 69.6 176 71 176 77.2 C176 71 177.4 69.6 182 69.6 C177.4 69.6 176 68.2 176 62 Z"/>
  </g>
</svg>
